<svg viewBox="0 0 25 24" xmlns="http://www.w3.org/2000/svg">
<g clip-path="url(#clip0_5988_9434)">
<path fill-rule="evenodd" clip-rule="evenodd" d="M4.48526 13.556C3.3346 13.556 2.40181 14.4888 2.40182 15.6394L2.40184 18.3952H3.74107C4.21446 18.3952 4.59821 18.7789 4.59821 19.2523C4.59821 19.7257 4.21446 20.1095 3.74107 20.1095H1.5447C1.07132 20.1095 0.687562 19.7257 0.687558 19.2523L0.687531 15.6394C0.687515 13.542 2.38782 11.8417 4.48526 11.8417H8.57637C10.3664 11.8417 11.8175 13.2928 11.8176 15.0828V16.3598C11.8176 17.4839 12.7288 18.3952 13.8529 18.3952C14.3263 18.3952 14.71 18.7789 14.71 19.2523C14.71 19.7257 14.3263 20.1095 13.8529 20.1095C11.782 20.1095 10.1033 18.4307 10.1033 16.3598V15.0829C10.1033 14.2396 9.41964 13.556 8.57637 13.556H4.48526Z"></path>
<path fill-rule="evenodd" clip-rule="evenodd" d="M15.8882 12.0461C15.8882 11.5727 16.272 11.189 16.7454 11.189C21.1073 11.189 23.3807 14.3795 24.2552 17.1376L24.2552 17.1376C24.7761 18.7805 23.3925 20.1093 21.9301 20.1093H21.2187C20.7453 20.1093 20.3615 19.7255 20.3615 19.2522C20.3615 18.7788 20.7453 18.395 21.2187 18.395H21.9301C22.1898 18.395 22.4019 18.2817 22.5246 18.1359C22.6386 18.0004 22.6792 17.8388 22.6211 17.6557C21.9321 15.4825 20.3717 13.3289 17.6025 12.959V18.0535C17.6025 18.5269 17.2188 18.9107 16.7454 18.9107C16.272 18.9107 15.8882 18.5269 15.8882 18.0535V12.0461Z"></path>
<path fill-rule="evenodd" clip-rule="evenodd" d="M7.74803 19.2522C7.74803 18.7788 8.13179 18.395 8.60517 18.395H16.363C16.8364 18.395 17.2202 18.7788 17.2202 19.2522C17.2202 19.7255 16.8364 20.1093 16.363 20.1093H8.60517C8.13179 20.1093 7.74803 19.7255 7.74803 19.2522Z"></path>
<path fill-rule="evenodd" clip-rule="evenodd" d="M13.6056 5.30294C13.6056 4.82956 13.9894 4.4458 14.4627 4.4458H16.7454C17.2188 4.4458 17.6025 4.82956 17.6025 5.30294V13.1285C17.6025 13.6018 17.2188 13.9856 16.7454 13.9856C16.272 13.9856 15.8882 13.6018 15.8882 13.1285V6.16009H14.4627C13.9894 6.16009 13.6056 5.77633 13.6056 5.30294Z"></path>
<path fill-rule="evenodd" clip-rule="evenodd" d="M6.176 17.803C5.3078 17.803 4.60399 18.5068 4.60399 19.375C4.60399 20.2432 5.3078 20.947 6.176 20.947C7.04419 20.947 7.748 20.2432 7.748 19.375C7.748 18.5068 7.04419 17.803 6.176 17.803ZM2.88971 19.375C2.88971 17.5601 4.36103 16.0887 6.176 16.0887C7.99096 16.0887 9.46228 17.5601 9.46228 19.375C9.46228 21.19 7.99096 22.6613 6.176 22.6613C4.36103 22.6613 2.88971 21.19 2.88971 19.375Z"></path>
<path fill-rule="evenodd" clip-rule="evenodd" d="M18.7931 17.803C17.9249 17.803 17.2211 18.5068 17.2211 19.375C17.2211 20.2432 17.9249 20.947 18.7931 20.947C19.6613 20.947 20.3651 20.2432 20.3651 19.375C20.3651 18.5068 19.6613 17.803 18.7931 17.803ZM15.5069 19.375C15.5069 17.5601 16.9782 16.0887 18.7931 16.0887C20.6081 16.0887 22.0794 17.5601 22.0794 19.375C22.0794 21.19 20.6081 22.6613 18.7931 22.6613C16.9782 22.6613 15.5069 21.19 15.5069 19.375Z"></path>
<path fill-rule="evenodd" clip-rule="evenodd" d="M3.40571 10.5859C3.05919 10.5859 2.77828 10.8668 2.77828 11.2133C2.77828 11.5598 3.05919 11.8407 3.40571 11.8407H9.85485C10.2014 11.8407 10.4823 11.5598 10.4823 11.2133C10.4823 10.8668 10.2014 10.5859 9.85485 10.5859H3.40571ZM1.064 11.2133C1.064 9.92 2.11242 8.87158 3.40571 8.87158H9.85485C11.1481 8.87158 12.1966 9.92 12.1966 11.2133C12.1966 12.5066 11.1481 13.555 9.85485 13.555H3.40571C2.11242 13.555 1.064 12.5066 1.064 11.2133Z"></path>
<path fill-rule="evenodd" clip-rule="evenodd" d="M18.4412 7.17339C17.978 7.17339 17.6025 7.54888 17.6025 8.01202C17.6025 8.47516 17.978 8.85065 18.4412 8.85065H18.9454V7.17339H18.4412ZM15.8882 8.01202C15.8882 6.60207 17.0312 5.45911 18.4412 5.45911H19.8025C20.2759 5.45911 20.6597 5.84286 20.6597 6.31625V9.70779C20.6597 10.1812 20.2759 10.5649 19.8025 10.5649H18.4412C17.0312 10.5649 15.8882 9.42197 15.8882 8.01202Z"></path>
</g>
<defs>
<clipPath id="clip0_5988_9434">
<rect width="24" height="24" fill="white" transform="translate(0.5)"></rect>
</clipPath>
</defs>
</svg>